<?xml version="1.0" standalone="no"?><!DOCTYPE svg PUBLIC "-//W3C//DTD SVG 1.1//EN" "http://www.w3.org/Graphics/SVG/1.1/DTD/svg11.dtd"><svg t="1651998233390" class="icon" viewBox="0 0 1536 1024" version="1.1" xmlns="http://www.w3.org/2000/svg" p-id="5629" xmlns:xlink="http://www.w3.org/1999/xlink" width="300" height="200"><defs><style type="text/css">@font-face { font-family: feedback-iconfont; src: url("//at.alicdn.com/t/font_1031158_u69w8yhxdu.woff2?t=1630033759944") format("woff2"), url("//at.alicdn.com/t/font_1031158_u69w8yhxdu.woff?t=1630033759944") format("woff"), url("//at.alicdn.com/t/font_1031158_u69w8yhxdu.ttf?t=1630033759944") format("truetype"); }
</style></defs><path d="M0 0h1536v1024H0z" fill="#FFFFFF" p-id="5630"></path><path d="M320.22272 801.41568c35.97824 0 56.384-51.93984 49.408-62.66624s-29.00736 18.77504-33.83552 10.19392 43.67616-49.34912 34.72896-60.07552-25.6 13.94432-29.35552 9.11872 38.912-47.20128 30.464-57.39264-17.68704 16.64-25.14688 10.72896 31.19872-59.54048 13.4784-71.87712-44.03456 83.67616-54.2336 86.35904-35.9808-55.24736-47.7952-43.44832 40.81408 80.99328 32.22016 87.96672-40.27392-30.57408-50.47552-15.55456 35.44064 47.73888 32.2176 52.032-37.58848-11.80416-41.35424-0.5376 33.29536 55.15264 89.67936 55.15264z" fill="#F3F9FF" p-id="5631"></path><path d="M302.81472 822.31296a1.96352 1.96352 0 0 1-1.91232-1.5232c-16.08448-69.92128 19.89376-140.6976 20.25728-141.40416a1.96096 1.96096 0 0 1 3.48672 1.792c-0.3584 0.69376-35.68128 70.2336-19.91936 138.73152a1.96352 1.96352 0 0 1-1.47456 2.34752 1.86624 1.86624 0 0 1-0.43776 0.05632z" fill="#D0E7FE" p-id="5632"></path><path d="M256.6528 738.88c0-25.11616-33.73056-32.46592-33.73056-49.61792s44.77184-26.33728 44.77184-57.58464-44.76928-26.95168-44.76928-50.84416 22.38464-23.88992 22.38464-53.29408-57.95584-107.8144-83.71456-107.8144S110.08 493.23776 110.08 517.73952s43.54304 35.53024 43.54304 56.35328S110.08 596.21632 110.08 616.70656s52.736 38.97088 52.736 54.17984-38.01856 25.11616-38.01856 53.90592 36.70528 86.3744 55.1936 86.3744 76.66176-47.17056 76.66176-72.28672z" fill="#E7F4FE" p-id="5633"></path><path d="M177.54368 834.56768a1.89696 1.89696 0 0 1-0.34048-0.03072 1.9584 1.9584 0 0 1-1.59232-2.26816c19.28448-109.90592 18.26304-186.9696 14.00576-232.26112-4.5952-48.92928-13.7984-72.11776-13.89056-72.3456a1.96096 1.96096 0 0 1 3.63776-1.46688c0.38656 0.95488 9.51296 23.95904 14.16192 73.4464 4.27776 45.53216 5.31456 122.9568-14.04672 233.2928a1.9712 1.9712 0 0 1-1.93536 1.63328z" fill="#D0E7FE" p-id="5634"></path><path d="M497.09056 412.62336l-13.02016-19.4176a15.5648 15.5648 0 0 0-13.86752-6.86848 146.46784 146.46784 0 0 1-17.408 0.03072 15.58272 15.58272 0 0 0-13.824 6.87104l-12.99968 19.38944a15.55456 15.55456 0 0 1-18.86208 5.70368l-33.89696-14.02368a15.51872 15.51872 0 0 1-9.29792-17.3568l4.53376-22.89152a15.52384 15.52384 0 0 0-4.91264-14.62272 146.688 146.688 0 0 1-12.288-12.32384 15.5904 15.5904 0 0 0-14.6688-4.9408l-22.95808 4.53632a15.552 15.552 0 0 1-17.39264-9.29536l-14.03904-33.85856a15.51616 15.51616 0 0 1 5.71136-18.83904l19.456-13.00736a15.53152 15.53152 0 0 0 6.87616-13.85472 146.07872 146.07872 0 0 1-0.03328-17.3952 15.55968 15.55968 0 0 0-6.87616-13.824l-19.42528-12.97408a15.51616 15.51616 0 0 1-5.71136-18.83904l14.03904-33.85856a15.54176 15.54176 0 0 1 17.37472-9.29024l22.91968 4.52864a15.57248 15.57248 0 0 0 14.6432-4.90752 146.33216 146.33216 0 0 1 12.33664-12.288 15.552 15.552 0 0 0 4.94336-14.65088l-4.54144-22.93248a15.52384 15.52384 0 0 1 9.29792-17.34656l33.89696-14.02112a15.55456 15.55456 0 0 1 18.86208 5.70112l13.02272 19.42272a15.56992 15.56992 0 0 0 13.86752 6.86848 146.46528 146.46528 0 0 1 17.408-0.03072 15.58016 15.58016 0 0 0 13.824-6.87104l13.01248-19.38944a15.55712 15.55712 0 0 1 18.86208-5.70112l33.89696 14.02112a15.51872 15.51872 0 0 1 9.29792 17.3568l-4.53376 22.89152a15.53152 15.53152 0 0 0 4.91264 14.62272 146.688 146.688 0 0 1 12.288 12.32384 15.58528 15.58528 0 0 0 14.6688 4.9408l22.95808-4.53632a15.54432 15.54432 0 0 1 17.37728 9.29024l14.04416 33.856a15.51616 15.51616 0 0 1-5.71136 18.83904l-19.456 13.00736a15.5392 15.5392 0 0 0-6.87616 13.85472 146.04544 146.04544 0 0 1 0.03072 17.39264 15.56224 15.56224 0 0 0 6.87616 13.824l19.41248 12.98432a15.51616 15.51616 0 0 1 5.71136 18.83904l-14.0288 33.85088a15.54176 15.54176 0 0 1-17.37472 9.29024l-22.91712-4.52864a15.57248 15.57248 0 0 0-14.6432 4.90752 146.73152 146.73152 0 0 1-12.33664 12.288 15.54944 15.54944 0 0 0-4.94336 14.65088l4.54144 22.93248a15.52128 15.52128 0 0 1-9.29792 17.3568l-33.89696 14.02368a15.54944 15.54944 0 0 1-18.86208-5.70368z" fill="#F3F9FF" p-id="5635"></path><path d="M1055.97184 433.1776S1195.82976 189.80352 1431.04 362.86208l-64.08448-13.78048 19.08992 17.61024-63.42144 22.10048-47.51616-32.36352s26.24 31.02208 38.62528 40.77568c-13.38624 7.77216-81.69216 15.39584-81.69216 15.39584l-7.97696-36.57728s-2.20416 31.40352 3.20256 45.19168l-64.768 5.54752-9.24672-23.88992-22.44096 19.8528z" fill="#8AE6B9" p-id="5636"></path><path d="M1060.43904 441.20832s61.53984-273.79968 337.46688-177.97376l-65.96096 18.56768-0.87296 16.80896-48.30976 35.62496-35.6992-31.08608s5.25568 28.9792 19.968 34.63936c-10.496 11.3792-44.50048 31.744-44.50048 31.744l-18.44224-32.58112s-4.42112 21.76 4.81792 33.344l-48.6144 33.31584-15.90016-20.096 8.36352 25.12896z" fill="#1EAF69" p-id="5637"></path><path d="M1207.72608 368.36608s-63.20128-231.1424-294.57152-138.94912l56.93952 13.32736 1.40288 14.30016 42.57024 28.54144 29.20448-27.86304s-3.34592 24.91392-15.6672 30.2976c9.39264 9.30816 39.168 25.38752 39.168 25.38752l14.44608-28.4928s4.62336 18.39104-2.79296 28.61568l42.73408 26.56512 12.75904-17.7408-6.144 21.7472z" fill="#8AE6B9" p-id="5638"></path><path d="M1060.25472 441.20832s56.4992-342.03648 278.016-261.10464l-50.54464 42.16576-41.90464-10.06848 42.14272 20.66944-27.02848 34.35008-57.47456-8.6272 21.45536 14.72256-23.92064 46.44096-29.97504-17.17248s1.536 22.1568 13.50912 30.86848l-38.0032 45.0176-20.672-15.1552 14.7456 22.016z" fill="#2CCD7F" p-id="5639"></path><path d="M469.43744 315.50208h718.49728v391.4624H469.43744z" fill="#F3F9FF" p-id="5640"></path><path d="M436.77696 739.584V315.50208A32.64 32.64 0 0 1 469.43744 282.88h718.49728a32.64 32.64 0 0 1 32.66048 32.62208V739.584H436.77696z" fill="#224380" p-id="5641"></path><path d="M436.77696 739.584v65.2416A32.64256 32.64256 0 0 0 469.43744 837.45024h261.27104c0 54.04928-29.24288 97.86624-65.3184 97.86624a32.64256 32.64256 0 0 0-32.65792 32.61952h391.90784a32.64256 32.64256 0 0 0-32.66048-32.62208c-36.07296 0-65.3184-43.81696-65.3184-97.86624h261.27104a32.64256 32.64256 0 0 0 32.66048-32.62208V739.584H436.77696z" fill="#DAE7FF" p-id="5642"></path><path d="M665.39008 935.31392h326.58944c-36.07296 0-65.31584-43.81696-65.31584-97.86624h-195.9552c0 54.05184-29.24544 97.86624-65.3184 97.86624z" fill="#C3D3F3" p-id="5643"></path><path d="M812.35712 788.51584a16.32768 16.30976 0 1 0 32.65536 0 16.32768 16.30976 0 1 0-32.65536 0Z" fill="#224380" p-id="5644"></path><path d="M820.5184 299.18976a8.1664 8.15616 0 1 0 16.3328 0 8.1664 8.15616 0 1 0-16.3328 0Z" fill="#F3F9FF" p-id="5645"></path><path d="M1078.2848 577.57184v-4.4288h22.50752l0.1024 3.20768-0.0512 1.23136z m-45.01248 0v-4.4288h22.50496v4.4288z m-45.00992 0v-4.4288h22.50496v4.4288z m-22.208-19.968v-14.848h4.4416v14.848a15.3856 15.3856 0 0 0 1.408 6.46912l-4.03968 1.84832a19.83232 19.83232 0 0 1-1.80992-8.31744z m149.60896 4.54656a15.52896 15.52896 0 0 0 0.6784-4.54656v-17.20064h4.43904v17.20064a20.00128 20.00128 0 0 1-0.86784 5.84192z m-149.60896-41.87136v-22.4768h4.44416v22.4768z m150.272-2.35264v-22.48192h4.4544v22.47936z m-150.272-42.60608v-22.47936h4.44416v22.47936z m150.272-2.3552V450.4832h4.4544v22.48192z m-150.272-42.59328v-17.152a19.968 19.968 0 0 1 0.896-5.91616l4.24192 1.30816a15.58272 15.58272 0 0 0-0.69376 4.608v17.152z m150.272-2.3552v-14.7968a15.36 15.36 0 0 0-1.4336-6.52032l4.02944-1.8688a19.77856 19.77856 0 0 1 1.85856 8.38912v14.784z m-40.32768-30.32832v-4.43648h22.50496v4.43648z m-45.01248 0v-4.43648h22.50752v4.43648z m-44.9408 0l-0.06144-3.84768v-0.58624h22.49216v4.43392z" fill="#B8DDFE" p-id="5646"></path><path d="M878.03136 580.70272H559.78752a20.96384 20.96384 0 0 1-20.97408-20.95104V421.76512a20.96384 20.96384 0 0 1 20.97408-20.95104h318.24384a20.96384 20.96384 0 0 1 20.97408 20.95104v137.984a20.9664 20.9664 0 0 1-20.97408 20.9536z" fill="#D0E7FE" p-id="5647"></path><path d="M878.03136 569.60768H559.78752a20.96384 20.96384 0 0 1-20.97408-20.95104V410.67008a20.96384 20.96384 0 0 1 20.97408-20.95104h318.24384a20.96384 20.96384 0 0 1 20.97408 20.95104v137.984a20.96384 20.96384 0 0 1-20.97408 20.9536z" fill="#FFFFFF" p-id="5648"></path><path d="M703.90528 494.656v-22.48704h165.08672v22.48704z" fill="#7266D5" p-id="5649"></path><path d="M778.94144 494.656v-22.48704h90.048v22.48704z" fill="#9E95E3" p-id="5650"></path><path d="M703.90272 539.63008v-22.48704h165.08672v22.48704z" fill="#7266D5" p-id="5651"></path><path d="M838.97344 539.63008v-22.48704h30.016v22.48704z" fill="#9E95E3" p-id="5652"></path><path d="M617.60256 528.38144a48.72192 48.72192 0 1 1 0-97.44128v22.48704a26.23488 26.23488 0 1 0 26.2656 26.23488h22.51264a48.80384 48.80384 0 0 1-48.77824 48.71936z" fill="#FFE994" p-id="5653"></path><path d="M666.37824 479.66464h-22.51008a26.28096 26.28096 0 0 0-26.2656-26.23488v-22.48704A48.80384 48.80384 0 0 1 666.37824 479.66464z" fill="#FFCB01" p-id="5654"></path><path d="M278.92736 821.3888l-26.624-5.92128 3.86816-20.65408 27.24352 4.82304z" fill="#F1B282" p-id="5655"></path><path d="M267.42784 796.92288c0.78848-5.16352-13.55008-8.14848-16.30208-8.57856-4.7232-0.73984-6.68928 5.40672-7.40864 8.26368s-1.74848 13.84704-5.53472 19.37152-3.09504 28.80512 3.92448 30.02112 7.1296-10.93888 11.6352-16.832c3.8784-5.07392 13.67296-6.36416 14.26688-10.26816 0.576-3.77856-8.36864-9.984-7.63136-14.81472s6.68672-4.79488 7.05024-7.16288z" fill="#0B224E" p-id="5656"></path><path d="M435.72736 925.26592l-4.73088 26.83136-20.83072-2.944 3.60448-27.392zM396.07808 647.48032l-36.03712-22.80192s10.24-11.99872 3.70432-36.69504a1.57952 1.57952 0 0 0 0.28928-0.06144c5.42208-1.71008 8.8448-2.85184 7.7056-5.12s-6.27712-13.69856-1.7152-14.27456 16.5504 34.19904 20.25984 33.63072a36.78208 36.78208 0 0 0 5.632-1.792c0 2.74688 2.86208 5.9904 8.55296 10.58048 7.43168 5.98272-8.39168 36.53376-8.39168 36.53376z" fill="#F1B282" p-id="5657"></path><path d="M408.60416 565.44256a117.16352 117.16352 0 0 1-12.61312 17.6256v15.95904a11.84 11.84 0 0 0-0.06144 1.33376 36.94336 36.94336 0 0 1-5.632 1.792c-3.70944 0.57088-15.6928-34.19904-20.25984-33.63072s0.57088 11.97056 1.71264 14.24896-2.28352 3.42016-7.7056 5.12a1.66656 1.66656 0 0 1-0.28928 0.06144 81.98912 81.98912 0 0 0-1.56928-5.19168c-9.56672-28.18816 19.53792-42.01216 19.53792-42.01216a0.35328 0.35328 0 0 1 0.07424 0.03328c0.39424 0.19456 2.27072 1.1008 4.89728 2.43456 7.7824 3.96032 22.11328 11.70176 23.552 15.616a9.74592 9.74592 0 0 1-1.64352 6.60992z" fill="#F1B282" p-id="5658"></path><path d="M437.07648 725.85472s31.38816 67.84 28.53376 96.3328-23.39584 109.44-28.53376 110.592-25.36448 0-27.648-4.55936 13.38368-66.13248 12.23168-95.20384-39.936-93.48096-39.936-93.48096z" fill="#0B224E" p-id="5659"></path><path d="M397.12512 767.24736c10.58048 20.30848 22.96576 47.17568 24.41984 63.9488 17.26464-44.09088-2.2016-98.08384-2.2016-98.08384z" fill="#03193F" p-id="5660"></path><path d="M360.03584 725.85472l-14.4 78.21568c-19.4304-3.69664-56.61952-10.3424-62.2848-8.12032-6.92992 2.7136-15.4112 25.66656-11.4176 26.80832s72.46592 22.31296 93.66016 16.52992c22.90176-6.2464 46.37184-54.72256 57.21856-102.60224z" fill="#102B5E" p-id="5661"></path><path d="M490.14016 525.78304s-1.7024-16.53248-2.27328-23.37024 6.848-14.81472 11.41504-13.68064 11.41248 6.26944 10.8416 14.24896-5.70624 26.21952-10.8416 28.50048-9.14176-5.69856-9.14176-5.69856z" fill="#F1B282" p-id="5662"></path><path d="M395.9296 600.36096a36.94336 36.94336 0 0 1-5.632 1.792c-3.70944 0.57088-15.6928-34.19904-20.25984-33.63072s0.57088 11.97056 1.71264 14.24896-2.28352 3.42016-7.7056 5.12a1.66656 1.66656 0 0 1-0.28928 0.06144c-5.6832 0.9088-21.11744-20.56448-21.11744-20.56448l30.81472-29.0688a51.65824 51.65824 0 0 1 8.27392 2.42944 0.35328 0.35328 0 0 1 0.07936 0.03328 28.03712 28.03712 0 0 1 4.89728 2.43456 14.592 14.592 0 0 1 2.1632 1.65888c4.8512 4.55936-9.984 20.224-3.42272 27.9296s16.82688-4.55936 21.96224-7.09376a2.46272 2.46272 0 0 1 1.19808-0.27904c4.21632 0.15872 5.79328 13.36064 7.36 19.904 1.29792 5.39392-11.90144 11.91424-20.03456 15.02464z" fill="#0B224E" p-id="5663"></path><path d="M367.4368 556.69248c14.30016-14.30016 23.54432-28.22912 20.63616-31.13472s-16.87808 6.32064-31.16288 20.608-23.54432 28.22656-20.63616 31.13472 16.85248-6.31552 31.16288-20.608z" fill="#1EAF69" p-id="5664"></path><path d="M342.63552 567.39328s-11.41248-13.39392-4.56448-18.24a57.472 57.472 0 0 0 6.848-4.84608c4.56448-3.70432-0.57088-9.984 5.9904-13.10976s25.96608 7.12704 25.96608 7.12704z" fill="#2CCD7F" p-id="5665"></path><path d="M281.5744 515.2384c0-3.23072 11.98336-11.97056 15.40864-6.272s9.13152 40.47104 14.848 53.00992 22.25664 44.45952 52.50048 51.29984c22.82496 6.84032 27.392 17.1008 30.81472 16.52992s1.71264-22.80192 5.13536-25.088 38.2208-2.8416 53.0688-22.2208 27.392-61.56032 33.66144-61.56032 16.5504 7.98208 15.97952 11.39968-23.20896 53.53984-29.10208 62.70208c-7.7056 11.968-45.65248 46.74048-45.0816 61.54752s18.26048 52.43904 18.83136 63.84128-15.97952 20.5184-38.2336 22.79936-49.0752 5.69856-51.35872-9.6896-0.28672-44.17536-5.42208-62.41536-42.79808-49.00864-50.78784-72.39168-20.2624-80.26112-20.2624-83.49184z" fill="#1B90FB" p-id="5666"></path><path d="M370.00448 713.72544a30.08768 30.08768 0 0 1-11.31008 22.34368 11.79392 11.79392 0 0 1-0.65024-2.51904c-2.28096-15.39328-0.28416-44.17792-5.42208-62.41536a33.10848 33.10848 0 0 0-3.37664-7.48032c0.63232 0.91392 21.13536 30.62272 20.75904 50.07104z" fill="#1277D7" p-id="5667"></path><path d="M411.77344 937.83552c-5.20192-0.55552-7.54432 13.88544-7.85408 16.65024-0.52736 4.74624 5.7088 6.43328 8.59904 7.02208s13.9264 1.12384 19.61984 4.65408 28.94848 1.792 29.84704-5.25824-11.264-6.62784-17.3568-10.85696c-5.248-3.64032-6.97344-13.35808-10.9056-13.77792-3.80416-0.40448-9.61024 8.79616-14.47424 8.27904s-5.08416-6.45888-7.4752-6.71232z" fill="#0B224E" p-id="5668"></path><path d="M285.51168 457.72032l29.27616 4.38016-5.74976 38.35136-29.2736-4.38016a9.216 9.216 0 0 1-7.7568-10.4704l3.01824-20.1344a9.216 9.216 0 0 1 10.48576-7.74656z" fill="#1B90FB" p-id="5669"></path><path d="M555.1616 498.0608l-5.74464 38.35392-240.38912-35.95776 5.74464-38.35392z" fill="#FFD125" p-id="5670"></path><path d="M553.24416 510.84288l-1.91488 12.78464-240.38912-35.95776 1.91488-12.78464z" fill="#FFD94A" p-id="5671"></path><path d="M551.32672 523.62752l-1.91488 12.78464-240.38912-35.95776 1.91488-12.78464z" fill="#FFE270" p-id="5672"></path><path d="M555.16672 498.05056a6.46144 6.46144 0 1 0-1.91488 12.78208l50.23488 14.04928z" fill="#FFE994" p-id="5673"></path><path d="M603.49184 524.88448l-50.24-14.04928a6.46144 6.46144 0 1 0-1.91488 12.78208z" fill="#FEF0B9" p-id="5674"></path><path d="M603.4944 524.88448l-52.15744-1.26464a6.46144 6.46144 0 1 0-1.91488 12.78208z" fill="#FFF9DE" p-id="5675"></path><path d="M583.21664 529.20576l20.2752-4.31872-18.11968-10.06336z" fill="#224380" p-id="5676"></path><path d="M315.4432 501.39648l-12.80512-1.92 5.74464-38.35392 12.80512 1.92z" fill="#224380" p-id="5677"></path><path d="M297.26464 516.09088s-3.42272-14.81984-3.9936-21.08928 3.9936-10.83136 1.71264-16.54272c-3.95776-9.87648-17.69216-13.6704-20.544 5.14048s6.27712 11.97056 7.98976 19.94752 3.42272 16.52992 3.42272 16.52992z" fill="#F1B282" p-id="5678"></path><path d="M1244.70272 551.8464h-109.056a18.176 18.176 0 0 0-18.176 18.15808v136.16896a18.176 18.176 0 0 0 18.176 18.15808h109.056a18.176 18.176 0 0 0 18.176-18.15808V570.00448a18.176 18.176 0 0 0-18.176-18.15808z" fill="#1277D7" p-id="5679"></path><path d="M1244.70272 544.26368h-109.056a18.176 18.176 0 0 0-18.176 18.15808v136.16896a18.176 18.176 0 0 0 18.176 18.15808h109.056a18.176 18.176 0 0 0 18.176-18.15808V562.42176a18.176 18.176 0 0 0-18.176-18.15808z" fill="#1B90FB" p-id="5680"></path><path d="M1144.73472 607.81056a45.44256 45.44256 0 1 1 45.44256 45.39136 45.47072 45.47072 0 0 1-45.44256-45.39136z" fill="#85C3FE" p-id="5681"></path><path d="M1190.17728 653.20192a45.39136 45.39136 0 1 1 0-90.78272 4.53888 4.53888 0 1 1 0 9.07776 36.31104 36.31104 0 1 0 36.352 36.31104 4.544 4.544 0 0 1 9.088 0 45.46816 45.46816 0 0 1-45.44 45.39392z" fill="#FFFFFF" p-id="5682"></path><path d="M1221.98784 607.81056a9.088 9.07776 0 1 0 18.176 0 9.088 9.07776 0 1 0-18.176 0Z" fill="#224380" p-id="5683"></path><path d="M1208.35328 671.35744h-36.352a4.53888 4.53888 0 1 0 0 9.07776h36.352a4.53888 4.53888 0 1 0 0-9.07776z" fill="#224380" p-id="5684"></path><path d="M1208.35328 689.51296h-36.352a4.53888 4.53888 0 1 0 0 9.07776h36.352a4.53888 4.53888 0 1 0 0-9.07776z" fill="#BADDFE" p-id="5685"></path><path d="M1287.15008 561.96096c-5.22752 1.74592-4.82816 10.69312-6.45888 13.29664s-4.29568 6.20544-4.14464 8.24064 5.39136 1.9584 4.9792 6.94016-0.46336 11.17696 7.168 12.736 6.41792 8.36864 6.7072 14.8096 1.25184 8.30208 3.8656 8.192a37.55008 37.55008 0 0 0 16.896-7.40608c6.272-4.63104 13.59616-18.176 12.288-25.9328-2.52928-14.95808-8.09984-27.06944-20.28032-30.47424s-16.60416-1.87648-21.02016-0.40192zM1198.65344 942.26688c6.656-6.81472 6.35904-32.5504 6.84032-44.09856l21.28384 4.096c-2.60096 8.9088-6.87616 23.77472-7.99232 28.77184-1.62304 7.31392-0.22016 19.83488-1.55648 22.89408S1184.35584 960.4992 1184.35584 960.4992l-5.1584-3.60704a95.82336 95.82336 0 0 0 19.456-14.62528z" fill="#F1B282" p-id="5686"></path><path d="M1216.86784 949.28896c3.01568 0.34304 0.512 10.8288-3.08992 13.96224l-13.27616-0.14848 0.23296-3.43552s-12.08576 4.1344-18.49088 3.70176c-6.58432-0.448-11.96288-1.23392-11.8912-2.304 0.1024-1.50528 8.96-6.0928 10.87744-5.96224 2.63168 0.1792 5.07648 3.5456 7.32672 3.584s25.85344-9.67168 28.31104-9.39776z" fill="#0B224E" p-id="5687"></path><path d="M1312.35328 936.63488c1.9072-9.32096-12.25216-30.8224-18.08896-40.80128l20.12416-8.04096c2.63168 8.9088 7.0656 23.72864 8.83456 28.53376 2.5856 7.02976 10.53696 16.81152 11.06688 20.10624s-24.11264 23.26528-24.11264 23.26528l-6.29248-0.256a95.96672 95.96672 0 0 0 8.46848-22.80704z" fill="#F1B282" p-id="5688"></path><path d="M1331.47648 932.72576c2.73152-1.33888 6.28224 8.83968 4.95104 13.4144 0.09984-0.05376-11.264 7.03744-11.264 7.03744l-1.6512-3.01824s-7.936 9.984-13.568 13.08416c-5.77792 3.1744-10.73152 5.41696-11.24864 4.47744-0.72704-1.32352 4.25472-9.96608 5.92896-10.88512 2.304-1.28 6.19008 0.256 8.10496-0.9344s16.52736-22.08768 18.74688-23.17568zM1298.02496 726.73024H1244.29568s-26.33216 57.53088-31.67232 96.63232-7.2192 84.89984-7.2192 84.89984l18.8544 2.8032c4.38016-19.02592 14.78656-28.928 13.37344-65.2416 7.81824-14.47168 19.11552-33.84576 19.11552-33.84576z" fill="#0B224E" p-id="5689"></path><path d="M1288.33536 826.78784c3.6608-26.64448 16.01024-41.4336 16.01024-72.3456a66.51392 66.51392 0 0 0-6.3232-27.70944H1244.29824s-5.65248 57.11104 9.14688 108.76672c5.7728 20.14464 47.03488 71.06048 47.03488 71.06048l18.49344-3.93216c-10.45504-28.22656-13.7088-54.17472-30.63808-75.84z" fill="#102B5E" p-id="5690"></path><path d="M1326.0672 638.44864c1.96352-22.77376-24.83968-23.19616-30.07744-23.19616-2.28352 0-7.96672 4.30336-13.75488 10.21952-6.144 7.27808-25.92768 16.81408-27.392 26.51392-1.21088 8.064 3.11552 24.75008-1.2544 44.46976-5.23008 16.61952-9.29024 30.27968-9.29024 30.27968h53.73184s-3.65056-18.52928 1.42336-30.2592 24.48128-33.32864 26.61376-58.02752z" fill="#FFCB01" p-id="5691"></path><path d="M1306.38336 648.576s-3.072 47.30624-50.944 66.3552c-3.14624 1.26208-6.01856 2.38592-8.62208 3.39456a1709.34784 1709.34784 0 0 1 6.03904-19.55328l40.67328-26.31936s8.59392-14.44864 12.85376-23.87712z" fill="#F0B701" p-id="5692"></path><path d="M1293.52448 672.45056s-17.0112 22.21056-31.97184 30.41536c-30.30016 16.61696-55.296 18.6368-55.296 18.6368s-31.5904 8.52736-35.79648-3.53024c-1.50784-4.30592 8.896 0.35584 22.59712-1.95584 4.44672-0.88832-0.53504-4.26496-2.13504-6.92992s2.67008-3.73248 8.896 0.71168 30.60224-5.50912 51.95264-22.74816c20.94336-16.92416 25.0112-29.98016 25.0112-29.98016z" fill="#F1B282" p-id="5693"></path><path d="M1285.85728 564.49792s-9.11872-0.60928-9.11872-9.64096c0-16.21504 36.98944-27.904 51.73248-8.192s14.38976 45.91872 32.36352 59.49952-1.9968 47.95904-20.96896 48.45824S1301.42208 636.25472 1307.41248 619.79648s12.65152-38.5664 1.83808-34.5856-6.336-21.48608-23.39328-20.71296z" fill="#0B224E" p-id="5694"></path><path d="M408.22016 189.5424l42.496 46.68928a3.13344 3.13344 0 0 1-0.21248 4.43392 3.14368 3.14368 0 0 1-4.43904-0.21248l-42.496-46.68416a3.13344 3.13344 0 0 1 0.2048-4.43392 3.14624 3.14624 0 0 1 4.44672 0.20736z" fill="#1277D7" p-id="5695"></path><path d="M512.77312 347.00288l9.86112 13.72416-15.5136 14.40256-10.32704-15.91808zM416.78592 352.96512l-14.55872 17.47968-15.2192-11.91168 16.0768-15.70816z" fill="#F1B282" p-id="5696"></path><path d="M475.37152 281.41824l-57.88672 74.6112-15.94624-13.65504s39.95648-80.48128 50.90048-91.84512 24.2432 11.65056 22.93248 30.88896z" fill="#0B224E" p-id="5697"></path><path d="M580.864 257.5616c-4.79488-15.19104-57.36448-21.51424-57.36448-21.51424-9.04448-0.55808-79.08352-2.06592-80.25088 25.91744-1.00864 24.17408 54.0672 98.95168 54.0672 98.95168l15.88736-9.6768s-13.13536-47.61856-28.29312-72.65792c11.98848 2.60608 33.72544 5.91616 66.74944 5.85728 38.44096-0.05632 29.20448-26.87744 29.20448-26.87744z" fill="#102B5E" p-id="5698"></path><path d="M588.57728 254.3872c-13.44768-44.89728 2.22464-50.23744-4.48512-90.752s-35.56352-40.81152-35.56352-40.81152c-25.9328 10.20672-33.00096 31.51616-34.14272 41.63584-1.0624 9.42336 2.17088 24.576 2.17088 34.33984 0 29.06112-5.31712 37.25312 10.2272 43.06432 1.14688 0.42752 24.4096 4.12416 35.42272 14.16704 13.41952 12.2496 31.62624 15.89504 26.37056-1.64352z" fill="#1B90FB" p-id="5699"></path><path d="M566.9632 210.6368c-7.41376 7.56224-35.66592 21.18144-50.21952 25.41312a8.33536 8.33536 0 0 1-0.28416-0.54016c-2.42944-4.96128-2.41152-12.46464-1.536-21.26848 0.20992-2.09664 0.83712-8.04096 1.63328-15.44448 27.0976-8.79104 46.16448-38.08 58.57536-37.42976-0.00256 0 6.12608 34.69568-8.16896 49.26976z" fill="#1277D7" p-id="5700"></path><path d="M511.232 242.32704h-63.16288a3.13856 3.13856 0 0 1-3.14112-3.13856 3.13856 3.13856 0 0 1 3.14112-3.13856H511.232a3.13856 3.13856 0 0 1 3.14112 3.13856 3.13856 3.13856 0 0 1-3.14112 3.13856z" fill="#1B90FB" p-id="5701"></path><path d="M493.62432 219.264s-13.568-2.40384-21.22496 2.8416-12.25728 13.92128-7.66208 14.272 6.12864 1.16736 11.38176 0 1.31328-5.10208 10.496-5.32224 11.61728-6.10816 11.61728-6.10816-0.24064-5.2096-4.608-5.6832z" fill="#F1B282" p-id="5702"></path><path d="M546.82624 159.47264c-0.512 11.08736 2.67776 21.45536-14.63552 35.24096-16.0768 12.78976-41.6512 21.67808-41.6512 21.67808l8.50176 14.6816s56.54272-17.3824 64.13056-26.12992 11.93216-33.18528 11.96544-41.39008c0.09216-24.11264-26.49856-43.05408-28.31104-4.08064z" fill="#1B90FB" p-id="5703"></path><path d="M492.1088 88.09216c-0.768 7.49056 2.84928 9.69472 3.21024 12.544s-0.63232 9.37216 0.47616 11.73504 4.864 1.00608 7.29344 3.64032 2.54208 7.48032 6.9632 9.36704 13.824-3.42016 15.51872-0.38656c5.65248 10.05824 3.43808 22.16448 5.65248 23.72608 1.536 1.088 26.7776-19.8912 22.60736-24.96768-5.30432-6.45632-8.62208-9.93792-10.1632-17.72032s-10.39872-34.89024-20.97408-33.75104-29.77024 7.8592-30.58432 15.81312z" fill="#F1B282" p-id="5704"></path><path d="M551.94112 80.02816c2.78784 20.60032-2.2144 30.464-6.53312 31.70816-5.52448 1.59232-17.152-20.60032-22.31808-18.5856-3.61984 1.408-7.22944 7.78496-10.2272 6.26688-2.54208-1.28-1.28-10.83136-8.36864-8.0768-14.70976 5.71648-19.35616 0.25856-22.12352-6.82752-1.96096-8.73728 5.33504-17.06752 16.55552-23.02464 9.49248-5.04064 20.736-10.68288 28.63104 0.90112 0 0 20.78464-8.9984 24.384 17.6384z" fill="#0B224E" p-id="5705"></path><path d="M528.54784 132.84864a30.28736 30.28736 0 0 0-2.97984-7.87456c-1.20832-2.14272-6.2976-0.08192-10.71616 0.58368 1.6896-0.31232 10.88256-2.08128 14.9888-4.99712a13.568 13.568 0 0 1-1.2928 12.288z" fill="#CD916A" p-id="5706"></path><path d="M395.97568 341.71648c-1.2544 4.97664 4.24192 7.50592 7.04256 10.19136s13.056 11.264 15.38816 8.448 2.14272-6.03648 3.81696-8.25088 6.12096-3.584 4.608-6.976-6.86848-4.44672-10.07616-6.32832c-2.34496-1.37728-8.58624-10.31424-10.52928-9.49504s-2.27584 4.47744-3.7632 6.05696c-2.20416 2.33984-5.51424 2.49088-6.48704 6.35392zM519.1168 349.55776c0.45824 5.12-5.376 6.74816-8.55296 8.96s-14.6688 9.08544-16.52224 5.94688-1.16992-6.2976-2.47808-8.74496-5.48352-4.51072-3.46368-7.60832 7.488-3.328 10.94912-4.67968c2.53184-0.99328 10.09664-8.83456 11.88608-7.73376s1.536 4.77696 2.76736 6.56896c1.81248 2.6624 5.06112 3.32544 5.4144 7.29088z" fill="#355AA2" p-id="5707"></path><path d="M520.00512 357.62176c1.536-1.42336 5.24032-0.512 9.92512 5.0816s9.4976 9.40544 4.78464 13.8368c-2.95936 2.78272-21.696 11.90656-33.58464 20.9408a22.09024 22.09024 0 0 1-16.45824 3.34848 2.92608 2.92608 0 0 1-2.304-2.06592 2.51648 2.51648 0 0 1 0.9984-2.74432c9.89184-6.912 10.72896-6.25664 14.64064-16.62208 1.4208-3.7632 2.46272-7.06816 3.89376-8.25856 2.78272-2.304 6.24384-0.83456 10.6496-4.75392s4.80512-6.30528 7.45472-8.76288zM409.69984 363.1232c1.96096 0.72192 2.816 4.43904-0.05632 11.14112s-4.096 12.7104-10.19648 10.51648c-3.82208-1.37984-20.43648-13.95712-33.87392-20.46464a22.04672 22.04672 0 0 1-10.42688-13.15328 2.91584 2.91584 0 0 1 0.8064-2.97984 2.52416 2.52416 0 0 1 2.91328-0.35072c10.63168 5.696 10.42688 6.73536 21.45024 5.53984 4.00128-0.43264 7.424-0.9984 9.1392-0.256 3.328 1.4336 3.56352 5.18656 9.05984 7.34208s7.79264 1.40544 11.18464 2.66496z" fill="#0B224E" p-id="5708"></path></svg>